<mxfile host="Electron" modified="2024-02-15T08:53:19.793Z" agent="Mozilla/5.0 (Windows NT 10.0; Win64; x64) AppleWebKit/537.36 (KHTML, like Gecko) draw.io/21.2.8 Chrome/112.0.5615.165 Electron/24.2.0 Safari/537.36" etag="Nkm75FPFyhivt26wGDg3" version="21.2.8" type="device">
  <diagram name="Page-1" id="2XWkQP5S-hDbL94sL5Vg">
    <mxGraphModel dx="2058" dy="1180" grid="1" gridSize="10" guides="1" tooltips="1" connect="1" arrows="1" fold="1" page="1" pageScale="1" pageWidth="3300" pageHeight="4681" background="#999999" math="0" shadow="0">
      <root>
        <mxCell id="0" />
        <mxCell id="1" parent="0" />
        <mxCell id="APLwThIm-aDqV8bCMrbt-1" value="TextField and Label" style="rounded=0;whiteSpace=wrap;html=1;fontSize=25;fillColor=#dae8fc;strokeColor=#6c8ebf;" parent="1" vertex="1">
          <mxGeometry x="1323" y="140" width="657" height="60" as="geometry" />
        </mxCell>
        <mxCell id="PyGLFki0_b37D5n8LALT-1" value="" style="shape=image;verticalLabelPosition=bottom;labelBackgroundColor=default;verticalAlign=top;aspect=fixed;imageAspect=0;image=data:image/png,iVBORw0KGgoAAAANSUhEUgAAAosAAAELCAYAAACxssxSAAAAAXNSR0IArs4c6QAAAARnQU1BAACxjwv8YQUAAAAJcEhZcwAADsMAAA7DAcdvqGQAACxaSURBVHhe7d0HgFx1gcfx38z23WQ3mwIhIWV30wsQgjSVEokYJFI9PameBZAgWM7TKx56d3oKekgVDg5RyonIgYKoaEB6kZ4QkpBsem+7m2zfnXv/V3bfTubN7szuzk75frJv5vXyn1d+eWUmNHvO3Igi1p+6RazmHnp0d+ust6i+MlySS9OPQsiu8hsMQ1BCOfKhsO5hqITc94wwJDObUSWUcv0qnaQHzp7PxF6S7heb09hzGZ1Gp515Dc2ePccXDe3c2EN3cHTfrbeoXgL0ra+Ykhy0H1McIqld0Mwrn1yRQZ8MK1H66bmPR0wUUjxDUjpJTzSzPsv0W0xnxPZr94stFC8wzrLCol1nHQV6BMXos4nOnyu6OV30Y46SHDT9yiCe1JdPf2RW2Q4FSgi5pOeBDAdLuoRSP2BGicpQCUq/Moo+a+h7cWudesPr1w2LPYNi9NnE7kZ/gDR6NvUQp1Nv+jFo8vwFkIAhmdchkeSS5kgB5c56AKAvug+3KZT0RIdkblNuaIonuYEHb5LdHe06Nxj6A6QR3c0Ki7N92TDobGLUWceDmmPptYdgSQ7ajyn2Q64sZ67IoNLNsBWB9XZwdO/es9yQLGjOlG7KJV2y/fpIUv95puNy2l3dIGh4QdF981569BeaOWu2sw+PCor+AJlfUKCyslIVFhSqsKhQeXl5g7rn988JYsio4kn9zLL2ABhqziE21YZmqknJoFkdCm50GxzWqDs6OtTS0qLW1jY1Njaqva3Nau9M0wuPXa9WCycsxgmKw4cPV8WICu3e26imljY1W1Vbe4fbg8cZaU/Rh+xY/QAYXNHbXW9R2t9/MrG7v8Nj4GRj+fuXKR3WtYGc7mAvQ3LjH5gjtzNtbw4GZpx9NdjlmpkK8vNVXFRgVYUaPbJC+/bVqaG+3vpwnE8nOjCGZs6c1ZUNTaF6Deba9OjRo602edq6s16tbe1Oh5hS+9ED6It422XQDtQbhh1s5svGzzB6mYZ6fR3I6Q72MiQ3/v4f3Yfqs/EM9fTTX2FBvsaOGan8vJB27NjptrU+e/vDd9aAcHcxekHRvEdUPny4VZen9Vv29BIUAaQPs2F7VTxB/ZidADtXAP3FviRTmIy3YcsOtXc4V5OdB1m6M6ERtl+tNt1B0Tk9aS49mzOKPQ8+sQ4usdoBSK2g7dPZ6IN5w/V1O06k31jiTc/fLZnuyRjIcaWTeJ85ABxs2849GlFRYWdAfyY071ZYtBpMvWl0a8qGldn3KLa2Rd+baPh31tm4kwUyTbztMJHtNJHtOZHxJmuwxw8gFm/rTn4L5D8rmai1rU279taptKzUbvYyoXkPO5+pSY/dbc1Tz+ZhFgCpluguOvndeWzJTD+ZeUjmYGKG8VfIPdHrGuvCQEtma0b2aG5psTOglxS9S9LOPYvetma1NLXm63GaW7hPEUgt/266L7vswdytm3HHGr+3s4gW1H80Z8eTPtJtfgZCti1PtL6ua5lmsJcpG8sMA8fZb5hvvCkqKnKauk4iWmvP9OkzvPzoto9o8qTJWv7+NrttkPLhJSrId255TERbe6fqG5rcJiDdmB2qu4GkVKwdebz5GKgdvzeNvozPPz+J9t9X0eMdis8ik0WXlynPbC7DoHUyVcs80NNJxXzHn0Zftuzepar8+yKd5iUdHVw+s6ZM1rr166y6UNcT0aFpVlg0td5laPM+efIkvfv+drs5yH9d92+qmVLjNsXm/Sj15m27ugLqgfrd+urf/4vC4TynBZA2huJgYwTtnoPmYWB25w4zjUTGl0z/fRVrvKn8HLKBv7z85Zmt5Ri0vEYqlnmgpzH085zI1h0sFcvRV+k0L+kmdtnMnDJJ69at7w6KVk3X09DOW98LdUTFcM2eMTVuNWv6FLtaePLx+ugpTjVm9ChrOp3uWIB04q3/qdy5xNs1x+o2MLvybomOL5n+41Uef71frH49/m797Z4tsnGZkpGKbTiV+wkMhO/+6z9r/erl2rT2vZiV6Wb6STfPL/29TjzuWLfpYKbbc39+wm0aKN7VZqvOqnHOLFo1pp0XFvtyZvHnd92oww+v0SPPrlYobI3IVHmm6tQZR07R2EMrtH//AbvfsrIy/fr5Wru+anijLrz0cuXlFdjN0Z5b+ltVTZ7oNnU791Of1cuvvu42JW7Za39RZeUIt0m6++cPqHbdBn332//Q67g3r31L46uPdJt6itcNCNbXg7l3QMr1g/9gy6UDfzYta/SyeNtJKpZxMKYx9PM9MHuaVCxHX3XPiwmDC884S9u273Db9DTSygh/+dMTmjR1ttsmPZgweNMN1+mqa/5eL7z8itvWEa9b72J/Ts6ZRe8ytLNGJH7TocsahTWSPNXW7de6hgatb6zXxpY6bWrbp7a2TvvsoYmgTgx15BXG+iqenj60YLEdvkyYe/2Nt+16UyUaFE04PO4DR7tNDhMKvfH987X/qbt+dn9S48Zg68/uygwbqxosiY5/sPsfamZ7T6cDRV9lUhn3V9A65bXP5LJI1fqXies48vLy7KBYX18fs1q3foPdT7oxIdCEQRMK/WcY+xcUE+P7nkV35TdnF/uwHXR0OpeSx4wqUqiwXXXt9drZvFvbm5yfiglFjaO4slmloxvdJiAb+A+qfTnIZvJBOBG5spzZjM8QSCfRgXFQg6LJb3aGM3nQCXNJn1n0suCK7ZtUu2+r9rXvVZMa1Brab7ePuPsacwbSKBuxX6XDnG7JMGcJzSVfrzLNn7v0M3a957e//oVdeZecH/7l3fZl7SBmHKZfz913/KRr/EHD/fu13+zqx/SPweCtXcnoz7DRzLrrVdFitYsn0f4zVa4sZzbybzsDuR0NJm/79Coge/kDY6rOKHr6cRna0WSFw4KSNhUUtym/qFUFVmWz9jVeUDRmjJmgKSOq3abEmeDnXUI2l5N/9IPv2JeRzeVqExBNcDQBcfF5F2nO/JO1d+8+uz9zWdtjxuEFvehL1CYEjh41smsaq99fa7fzM9P47MV/29UP0pU50EVXiYo+8PgPRtHdepNo//2Q7OIix2TrSpKqbS2F23Sa2rT23TjViq4K6SqxfUDSYdFjh0SrKigylS8sWtuSf1amVNbYVTJMSDO8oGdCn/cQjLn30IRE86CKPxjG4r9nMfo+xSPnztbR847omsZHTzvFbuf3oROP0x//9LTbJH32i1e7dcgMZgcfr+qLvvZnJDLeAeDf4IL2A6Z9rCpt9DZDA9U9ujK8zyuFn1na8ZdHJvN/lrn+mQ6Ow6tnxalmdlUYOP5Lz/5L0olJbhvvd1h0gqITEgvNe6ETFp0nq70Ziti/OdjU1Ow2J848uewFPa8aaOYspX/85ixltM1btrp1yCx9OVh4/fTnwDIQ40hCf4/v/R1+wJhyi1d2g909F6TNhz1Icv3zjSfbP/tYsmN9iL5HMfoexsEWdtadiHMPo/XS51XJKv+WliYdN7pGx1RO1dHl03RU2UwdUTLbbu/04nxIZtydnZ1dD8UkylxuNmcSvTOMfuZSsbnk7F2O9uyrq9ec2TPcpt699c5ynb14kdsUmwmK/n64ZzEVzDqUyMbu9R9d9VUi/QYZiHEkINZGGzQLXnHEqux9gFtlveiFzyW5trxGTqzUceTMhh3AWec7Ojrsr8cJMnbsoXY/6SboYZbBDIz22mK9eGtN0mcWTe6bOX2CLjv1NF128kf1hQ8v0uc//Al97oNnacb0w1VaWqZDDhmjkaNGqqCwwA6L4XDyO6lvf/cH9qVm7zKxCYYmKJp7CM0ZQO9ytBcYzT2Hpv94D7j4meHN2Utv/KaKDqfR/WCw+dcXUx9v/emtexaK3v97RTAQxRA9bmQZ/8rirzB02OAG2z33PmB/j2KsL+Q21cvPLrX7SSfmew5/+L3vHBQUPV5gvO7733XbDI7QtGnT7fOJ/jOLVZMn69018b+U+5qrvqB5Rx3hNh0sHA7blUnp/l+GefutZbruv25ROC/fbYPcEnRAit5RcuAKFHRMiVe0fSnOoPEaff04vHFk7McXtADxCiebZOtyDsZyDdQ4B7vMExv/wGy66bgepeM89Y0JjIn8wl58vY9nZs0k1a5b56wL1rTN9JMOi/aXbnc6X7ydCHNpOmSFyFCo37dLIiPF2xX516WMTRuDK97mFqvIovvva/EH6e1jyYqP0CxE9Mz3pXCyRTYu62As00CNc7DLO7HxD8xmm67rULrOVyr1XgaxwmLyX51jhT1zdtD8bF8ilRmGoJir4u2G2Ih7Fa+IYhVtrP5Nu/4UdV+HH5gjzhDJ6JkfANm4/AO9TP3ZiIDMQ2pDisTbWcfa8bIz7iGoOEyxxira3orPdO9LEQd9bEHDB81PRutLQSH9DdSKyfqA3BO2V3v3xdkEzCsbA4IkmgZ66z/V61oarN/eLPR1VhKd3UT698+H91H5K8N7j8U/PLJIvA89l7GiI/vZadC9LdFe5616ziwiSb0dTPxpI50M8nz1dixJ9Fgz2P379WdYo7/DA4MuHfdJQPojLCJJsZKBF8QS2SEHDZPIONJIorMd1L8p3mTCV3+LzZuuf/qJzId/uKxhCjVD10cAGACERSQoKA0MxMHUOyinyYHZW9T+hB//OKLHE2sxY/UXT9C4B0qy4x3s+UpWOs5TWsrWQkrH5UqT/R0QB2ERMfhDm7/KEQMVKOKNI1Zx9nea3vCp/Kj6smoElafXPqh7ouKNL7pdrH56lUPbQNZI6oMGEMUKi+5NjO72ZL5vkU0LsQUdLDP8IGpWeH81EBIdz0BNdyj0dd795TvQyxtrfAM9DVj68r+DdOKfV1aIIN6nmkmfLAZX167aqjH1nFlEDPF2qv7dSpbsXmItklcZ3ntf9XZM8o/P9Ntb/4kY6PH1JplpecP4yznRMo4Wa3h/u966I4vxQccz8KWTyh0QUiU0ddo051dk3MekTUNV1WT96ckn7R4AAACQG05buFC1tevsX24x+vULLgAAAMh+hEUAAAAEIiwCAAAgUNh/v6L92IupsxsAAACQU5xA6GZCU8vP/QEAACAOwiIAAAACERYBAAAQiLAIAACAQD3CondPIwAAAHKUeb7FrTU4swgAAIBAhEUAAAAEIiwCAAAgEGERAAAAgQiLAAAACGSFRfen/uxXHoUGAADIZV250P05aM4sAgAAIBBhEQAAAIEIiwAAAAhEWAQAAECgsPdMS8S8m3sZ3X8AAADILU4GtANhVxrkzCIAAAACERYBAAAQiLAIAACAQIRFAAAABCIsAgAAIFDYftLFfhTaferFe/QFAAAAOcfEwq44aDVwZhEAAACBCIsAAAAIRFgEAABAIMIiAAAAAtlhsfvxFveH/rruagQAAEDO6H6yxfpzciFnFgEAABCIsAgAAIBAhEUAAAAEIiwCAAAgEGERAAAAgayw6D72whPQAAAAiMKZRQAAAAQiLAIAACAQYREAAACBCIsAAAAIFHYebPH9zF/EfjFNAAAAyClWBjRZ0PmzcWYRAAAAgQiLAAAACERYBAAAQCDCIgAAAAIRFgEAABAobD/p4r54T70AAAAgd3VlwkiEM4sAAAAIRlgEAABAIMIiAAAAAhEWAQAAEMgOiz0fcuFBFwAAgFxkMqCTA7vrOLMIAACAQIRFAAAABCIsAgAAIBBhEQAAAIEIiwAAAAgUNj/jYtivTm33OwAAAHKHFwjNn/PGmUUAAAAEIywCAAAgEGERAAAAgQiLAAAACOSGRftuxq57GgEAAJC7uuNghDOLAAAACBaqrq6JRKzUaD8e7byourpaS5f+2e0FANLbQw8/5tYBiHb+uWe6dUDvFiz4iNbWrrXqQgqFTEVYBJAFTFj85HmLnX0YgC5m2yAsIhGxwiKXoQEAABCIsAgAAIBATlj0XblxarmUAwAAkIt63NFj1XNmEUDmixyw355//vmo6iWt2tNpd8toLVv1zos9l+3V2nqp7g398o5H9K6z+P3jTuOVNXU9Thd07Fqpl19crm2tbgsAOYewCCALOPGmrq5OdZuX6ZXlW1VXX6/6+ka1RUJ2t4wWOqDal1/Xur3W8plltKoDLdYyFx2mmfOm6ZBCt79e1WvFE/+rP65qcpt9zDRe+ov+9Js/aHmD284S7tymN15Zp6YsKEYAySEsAsh8oWH22xlnnKEPTS1TqHy6Tl60SIsWnaIZ5W1q959c7GxXq2kR6VBbW7s6IxG1HdinvQ0tij4H2dnSoL37GtRy0MnJTnW0tcYeryvS1qi6vXvV0NzhtrFY/bRZ/XSduTPNbW5z1/x0qPlAo1qjpxkp0qTjF9nLaKpTZlRYYXGMZh41TSMLTPcYw5v6+r3au98sm/nWiw7Vb9uuBmveW73p+oVHa8r4XXrqT+8p8GSlNY6Whr3aU9+kdm8Evmm3NOxTg1dg7c2qtwJuU1ePjuByBZCO8iorR17r1ncZWVmpSy65xG0CgPT27opV+tWDD+jaa69Vy7a39cbusZo/51AVRvbqlXtu13PhuZo7tsjqs1Pbn/+Z7ls+QkeMrdUDd/xFm7a9pCefeUNvvfiMXtpQrKmzxqk03KatLzygu371nJaveE3PPr9GhVNma3yZ+//reOOdNly7Xvpf3fnAUr296l29+swzWnZgrGZOGanwlj/rp/dv0KT5VRoWsoba9rRu/8UajT+mRuX7X9e91vxs2PiMfvfH9xSaMU+TytzTeR17tPLVWhUfebQmlfpO8TVYw9z+skrmzdLopqjhJw3X8gd/rj+8sVLLX3pBtcMO14EnH9Czm/dr59plen2tNO3ICeoanZnGK7U65PQFKnrp91o78kjNGGWl0APr9dqyVk35wDRVdtTqD3ferd+9vkor33xOzy5v08Q5k1XeaKa9VGvXv6JnXnxVzz79hvYXt+jVRx7XS2+9oqefW6dhs+bqsJL2+OWKAWe2jVkzp7lNQO/uuefn2mv9R9f52hyrstqFu/6/Z9/NeND/MwEgc4VGatbRY7Vj+fuqN80d27V8WYumHDFJJuLpwGbtr/obLVmyRFd/5QLN2v20lr7XqI6tz+nRV0p0+peusbpdo787vlUvPr1SjWYYI85487c+q/97IV8LrviavnzlVfrql8/SmOW/1dK1ATf9+Xe7zdvVNuNiff0fPqcPjfaFQiN8QCueuF/33nuv7v3FQ3ppq++Mpcc3/NztL2hV5cf0xSuv0JKvX63zZ03Q8Rd9VicdNlzTF1+hr15yoqInYURKpmjBRyeo9vd/1tpmK9D673SPlGjGWVfqmqsu1xVXXqj5rW/qjY3ucjXuVdGxl+jKJVfrcycV6fU/r9f0i5ZoyZe/pLMm7dDrK3arvbdyBZAGvG3eene3f/47ByCrlU+bp8N3vaNVdRG1bn5L74Xn6Kjx+U7H4omaM3WEsyMsGKvpU0q0d2ed9q6vVVNxi955/EH98pe/0tLaVrXv3qn9vtwUNN669evUWnWUplc4u9dQ6WTNqQlr65Z9vf93PH+splZXWPPjfBFuD52lmnDkBzR//nzN/8BcTfDOOvr5hh8+cYqGr3lc9z7yotbs61R+fnf/4XDwrt+cRxg283SdPmGdnnxmndr8M1I0RpUty/TnR+7X3Xf+Wm/sa7cvZ9uKx6n6sGKrJqzyQ0apbMwUVY8w0ynRyDFl6mhq6VO5Akg/hEUA2a20RvOmNGrFyi1a/84Glc+bq0O8PV+4QAV5br061d7aoZAJUtb/pkMjqjX/2A/omGOO0THHL9S5Z8zRcLdPW9B4rWE7O6LuB3Qv59jXc6zuXd0iUf3lFanIzbEHswLg+GmaOXOmZs6YrvHlMXbfvuHzDv2gPnv1xTqxvFaP33aTHvI/tRKPnQ3LNPO0k1W57Ak9t7n7DGbje7/R3Y+tV/ncBTrnor/Vh8b5ZjYUVtiXK005eo32slvML+z0Wq4A0g5hEUCWK9KkI6t1YPmL+uuGch0xs9Jtb2naoPc2OBdBIwfW6u33pQmTRqrisHEKbd6k1jFVqqmpUU3VWA0vK1WJLwwFjbd8wkQV1r6plXXOGbdI4zotWxPSxImVyi8eppLGbdraYCJih3auWac6u6+B11Jfp7biQzVnwaf16ZPKtWXNNrVY8S0vHFFbe4xL2NGGz9HpH6nUOy+8rw47UEfUsGOn8qrm6aiasaro2KzaHW12r31V3qdyBZBuCIsAsk9U+Mgfd5Rmt6/W9nFHa5rz4LSjrFItL96pn9xys35842+0c86ZOmVSgQomn6SPz9qp39z4I91066264Ue364/rm92BusUab/7hJ+ms41r1p1uv141mvDc9roYPnKNTJuRLI+fo+Jqd+sNPb9Qtt96mx7eXasQgBaXGFQ/rhh/+RLfeerN+/mK+5h0z2Yq3wzShZpjWPPbfuvm+F7Ur7uXfkCqO+JhOqdynXe1O8+jps1Ty9v/qpptv1o2/WKHQqD5/Z4+tr+UKIL2EqqprzPcp2JcH7H/WzqOmukpLly51ewGA9PbQw4/pk+cttvdj6mhTayRfhb579NSxVU/996/VvOgyLbLCoK3+r7rnrvU67vKzNKm1Qa2F5aoo6bombetorlddU0TFw8pVWhAj1cUar6uzdb/qD7SroKxCZYX+YTvV0lCnxvAwjSgJqa0jrIKCsELm62faI8rLz+9xOddhvqqnXZG8QuX7/4vvDVNgDXPQ8BG1NdZrf2ueSocPU5HvcnvbgQY15Q1TebF/eQOmYZVnizWPhYV5dgaPtDepwVquomHDVBBpU0e4UAWhqGmbrxHqtIZxRxSxxtGufBXkOQvWa7liwJht4/xzz3SbgN4tWLBAa9bW2vdNm3uYzW0k1pZsIqLLron7X00ASG95Bb6gaAWjlibtevsZvVN0jI6d2DPQ2UL5KqmoPCgoGnnF5RpZWREj0PQ+3nChFQYrR0QFRSOsouGVqiwrUChshVoTFE3rUJ4VGmMFRSNsLVZUiDO8Yfz1XcOHVFBaocoR/qBoWOHUCrA9g6IRMA2rPIvcoGiE8ktUXjHcGqd1AMm3gqLpP3raZrl8IwpZ4/CCohFcrgCGmpMCrVc3Dpq36N0CAGSRer398B26//UyLTj7WI3qkU3CyveFoMTEGy8AZBfCIoCsYF+CPsgIzf/bq/Xlz52pOZVRu7vyo3XBlWdruvm2l4TFGS8AZBn2cgAAAAhEWAQAAEAgNyz2fMgl1sUcAAAA5AA3CHp5kDOLgGX9H2/SD3/4w67quhse0tsHGvXctxfq49e/ocS+ejg2M43rfvyAXrd/TNhTr7/ed71uW7rZbQYAIL0QFgFL24oHdeujy7Rx40a72rBpr1pVoskfOkuLjxuvGF+4ElPDC9fp/It/qtUxTs+3v/tL/du3vqTLfvyqur+GuEMbf3ebHlo5EHEUAICBR1gEXHlT/kb/ftNNuslU139Bx5SFNO7kS3XRcWPs7p2tB9TQ3K62+u3aXm//pIU6DuzQ+tr12tnYaaXBRjXsXKE3Vtaro/mAGqPyXyQU0mGLFqv89iv1o7da3bYH62jcpQ21G6xxdv8kW2eLM+32hq1av3GPmu1fkutU445ard2634qcPpFm7dmwVut2NVl9HKxj/z7t78OvvQEAYBAWgUDNev6bx+u0/1qhiF1/gk77u0v0wWlzdfLXHtWLN31cNVNO1OLFH9GRJ1+rpx77sk659EFtXn69PlJ1tK56Yq87nm4dJQv1jauLdeuSm7XCyZs9rL1zsWqq5utjZ31UR4yfok/fv9GZ9rdO0EcuuEAnHXeaTj++RtMWf0fXf+mDOuqkM3TqrPGa9/WnZa5ud255RJcfXa0jFi7WR+dM0vyr/6Ddzqgdra/pX0+YqAXXL+8ZMAEACEBYBGwRtbz6Y3160SItsqozvv5Iz5Bla9XadTN0S+0OrfjJSN13wyZd/MS7envZ+9r0zDd14ll36tUHPq3xc76hp7eu1F2fqHSH6xYprNTxX71FV3VcryW3v39QYCs++p/0zMb1evft9/TmbfP1/E//T+tMh0ij1jacqnuXLdd779yjU978vv6n+D/12nsrtPLJJdIv79YzdTv00NVf1VvnPabVK5dr1Yqfad5v/0E3v+VLpYXz9e2/rNLvvzJbB/9eCQAABwvbj7pEPfUC5J6Qiqcv0ucv+6K++MUv6vKzj1Sp26VLKF+HL/iYjiqxakvn6vQFzbrtU+fqm/e9pj35pSoKSfkF+W7PcRTO1TW3XKH6/7hKP1vfc6s7bMowvfLjJfqbhcfrI996SnWNB9RkriWHSlRzyomabP57VzlDc8aP1Ymnz9dwq7F44ixVh/doz+439Me/RhT+63/owvPO03mfv0vrCvZqxfs9nqhR4cixGlnoNgAAEINzdLJeI9Zxxa4HoEj5TJ129jk655xz9IkPVcnKhD1FwioeXuqekRutxXe8qdduO127b1ms6R/+rv7aZHfok+J5X9ctX9il/7jqDq1qdTfDtnf0g9MX6cZ9H9Y1Nz6ox2/+pA7t9O46DCmc5z8XmKd877d3Q2HnN3kjnersqNBxFy7R5ZdfblffuvlOXT2PZAgASB5hEUhG8xbVbgtr4oKr9N+/u10f3/K4ntoYUcgEupZmtfZ6mr5Ex37jJ/pk7a16cF2B8/vE9e/p9Y3VOu8L5+vEmaO17YWXtS2UwI8OD5utE2Zs03PvluuDCxdq4cLTdOLEMRo1dpjbg6Nl12btanEbAADoBWER8CSQy9SxXD/44FgdPvMozZ13ud44/Rv6zJSQSudYAW33dVo47Rhd8Zs9bs8Byk7UP996vpre3KCOiDXxUafogo9u1rdPmKW5047Q368+RIfG/L3jIBN10Y/+UaPvOFUTqudq3owJqj7vF9rkdrW1vqrvnDxdi368jAdcAAB9Eqqqqo6YH+A3hyT7h/itqrqmWk8tXer0AeSASOsBHYiUaFhRz/8/ma/LaVapSgtDdn2TSlRW6PQTad6nLdv2SiPGadyIoq6sGWnZq6272lUxdozKfFeOY0+jU62NB9SeP8yehtSu/ds2alfeWE2qlBrbC1RanG8P682HNSa1NzeqLb9MJeYWyUibmpvalVdcogIz6o4D2rFxq/YXjdHhYytkD+JjvjqnsWSEhmfREy4PPfyYzj/3TLcJgIdtA4k6dcECrV2z1kqIIfNnHdtCCneft7Djov0K5JpQYdlBQdEIW+2dgObUe0HRCBWP0PjJVRrvC4pGqKhS48b3DIpG7GmEVVg6vGsaUr6Gja3S5DElCuVbwdQKiqaLfz7Mpptf7AZFu7FAxaVuUDTyynTI5CmqPuzgoGjkDcuuoAgAGFjRWfDgoyMAAADgIiwCAAAgEGERAAAAgQiLAAAACERYBAAAQKAYYdF8fY5bCwAAgBzjfEOOhzOLAAAACERYBAAAQCDCIgAAAAIRFgEAABCIsAgAAIBAdli0n3fhCWgAAIDc5uVB94Fo88aZRQAAAAQiLAIAACAQYREAAACBCIsAAAAI1BUW7fsZ3ZsZAQAAkKPcLOhFwtDkquqIRaayXuz3mpoaPfXUUrcXAEhvDz38mFsHINr5557p1gG9O/XUBVqzZo1CoZCVEkP2O2ERAAAAtlhhkXsWAQAAEIiwCAAAgECERQAAAASywqJ51sV53sV76gUAAAC5y58JObMIAACAQIRFAAAABCIsAgAAIBBhEQAAAIHC3Xcw8ngLAABAbvPnQVMf4cwiAAAAghEWAQAAEIiwCAAAgECERQAAAAQiLAIAACBQQFjkyWgAAIDc1Z0FObMIAACAQIRFAAAABCIsAgAAIBBhEQAAAIHC9u2Lzq+52C9dtQAAAMgpTg70JUGrNjRpcpXVzvyZTnatamqq9fRTT7l9AemvtbVVGzduVFNTkzo6Oty2g6OiokLjxo1TYWGh2wYAgOxwyqmnas2aNQqFQk5l/hEWkelMUFy1apVGjx5tV+Hw4N1d0dnZqT179mjHjh2aNm0agREAkFVihUXuWUTG27Jliw499FAdcsghgxoUDTN+E0hHjRpln8kEACDbERaR8erq6jRixAi3KTVMYDSXvAEAyHaERWSFvLw8ty41zPQG+95IAADSgR0Wfc+8WHo2AQAAIMeYOGhV5o0ziwAAAAhEWER2atqgZ3/+fX3t8i/osmv+RTf/9l3t23C7FlZfqEf3Wf9T2vAznX/s3+nhHW7/sWy6w+7/Eat/AAByFWERWadp2a36xIyj9Ln7NmnErKM0Y+RePXnnI3q/s/smi1DFkTr3s2dq5jC3RRDzXVIAAOQwwiKyS+Pz+van/k2t33hB7/zhFv3Ll6/UV759sx599B91TL7bjzF8ts6++AxNLXGbLZHmvdq0dq027WuJeeduZ8sB7W9uj9kNAIBsZYfFkF1rsY+CXU1Axql7+i79Kv/z+t4XZqjIbRfTlrv1ibmf1+N1pqFVq+75jGZNnK2PnHu2Tpr9Md2wumckbF19p86ZdpQuf3SLOt12AABkLV8c5MwiskhE299bKc0+WpMT+GGVjndv0KX/tFtLnqnVyjff1po1D+mScd1bSWTro7r8zH9X3nd+r7s/NVGp/ZIeAACGFmER2cXKeJ3t7Qmd/Vu/9AntOOVL+swM51xkqHiURpbZtVL+Rt1+0de18ytP6IFLa1TgtgYAIFcQFpFFQho3d47CL/9ef7UvL/dFRO1tbero7Ix9L2KkWJUj2rTu7bXax/VnAEAOIiwiqww7aYmWTH5MV11xj95r9OJfu/a8t0KbY/7gSkgTjj1ORU/do9+sb7fbRPZv1hYvbHaM0af+536d+9ZlWvS1J7WLp1sAADmGsIjsUjhXX/u/X+ni3d/VCWNHa3xVlSYccqhmXPqgtgYEvZIP/qv+50v1+tYR4zVt7mxNmnqRHvKnwvITde0jd+qEJy/Ux//xL+JrFwEAuSQ0aXJVxCLzfXLm3fyrqanR00895fYCpLe33npLc+fOdZs8EbXu26rNOw8oXDFO48eUKb+zRY3NVp4sLVJ+pFVNzREVlFj17rMs7Q3btHFXm8rHjteoEuv/UR2m/4jVf7HdT6T1gBpawyopK1GB1fzOO+/oyCOPdAYGACALnHLqqVqzZo1CoZDMP6uGM4vIViEVjhinqqlTNekQKyiaQJhXpNIyNxyGC1ViQqOpd+UPH6uqqglOUDTs/p2gaIQKy1Q+zAmKAADkCsIiMl5eXp46OmLekDhoUj09AACGCmERGa+kpES7du1ym1Jj7969qqiocJsAAMhehEVkvAkTJmj37t12YBzsM35m/Nu3b9eOHTs0btw4ty0AANmLB1yQFVpbW7Vy5Uo7yNnr8yDJz8/XyJEjNXPmTBUWJvAzMQAAZAD7AZf33QdcrMo84EJYBAAAgC1WWOQyNAAAAAIRFgEAABCIsAgAAIBAhEUAAAAEssKi8+Ro1/Ojg/cgKQAAADKEFwk5swgAAIBAhEUAAAAEIiwCAAAgEGERAAAAgdywyFMtAAAAiBbhzCIAAACCERYBAAAQiLAIAACAQIRFAAAABCIsAgAAIBBhEQAAAIEIiwAAAAhEWAQAAEAgwiIAAAACERYBAAAQiLAIAACAbiH33RYiLAIAACAYYREAAACBCIsAAAAIRFgEAABAIMIiAAAAAvnCYsR9BwAAQM6KioScWQQAAEAgwiIAAAACERYBAAAQiLAIAACAQL6w6P62S4+feAEAAEDuinBmEQAAAMEIiwAAAAhEWAQAAEAgwiIAAAACERYBAAAQiLAIAACAblHfjENYBAAAQCDCIgAAAAIRFgEAABCIsAgAAIBAhEUAAAAcxHnOJURYBAAAQDDCIgAAAAIRFgEAABCIsAgAAIBAhEUAAAAEssJi1G+6AAAAAC7OLAIAACAQYREAAACBCIsAAAAIRFgEAABAIDcshpzHXHjWBQAAAC4TDTmzCAAAgECERQAAAASKERbdS9IAAADITSYMuoHQDot2PQkRAAAgpzkZsWco7D6zGHHeTOf2jg7t3LnTaQEAAICsZ7Jfe3uH29TNCYtOjPRe1NLcolWrV9v1AAAAyH4m+zW3NLtN7tlF6y3s1tq8+pbWFq1etcptAgAAQLYz2a+1pdWudzKh8xruSohejfW2v2G/7rvvfm3atMlpBwAAgKxlMp/Jfvv37+8+e2gLmcvQpk13UDTa2tq0bds23XzLLU4LAAAAZC2T+Uz2MxnQZmVCLzPmjaisvNbUhOw2XmvZ16x379qtNWvWaMaMGSovL3e7AAAAIBuYM4rf+973tfSppdq9e7fdLmRCoVXZb+bf5KrqiCLWn/lnnoj211sqKso1duxYXXjBBZo6daqmTZumMWPGOB0BAACQUcxTz6tWrdLq1at173332WcU6+vqnY5uQHTCohsYq6yw6IXDiJMWDwqNBQX5Gj5suAqLClVcVKy8vLDVxe41jrgd40p6yOQn2Q+pn2hmLeaQzG3K5ciqZ8mNz3NoWHvkXDAEi5kjJWtJcklz5jNJ/VRN0Eq9OBO1Opmu5utxWlqa1dLaat+j2NbW3nUW0QmJ/nqrqqq2wqLZ/3eFQ6vB/LnNzp+vvfPS9R7E7p6sJAcdimn2R9Lzm/S8Jr+QQ1A8mfWZZJocWUz0whw1EMg+WKZaPyaZ/KCZs5xD8ZnYl2RTrR+TjFtGVie7e49A6Lw7l569dv7u1uvBYdGMzbxbNfZfz/qD3gM4I02xfkwy3rLENSSLmQPz2h9DMMn+GJIyAoaIffDJBUkuZv9KZ0gmmpQhWQ+SLp5+zGuaTdMer/3nf7de/e1Ms9feDOOExRrrWGUOV9YBy/wdVG/xtzP/nJb2XxB3yOQkOWiuTDNZ/ZrXZA3BJPsz0QybXQySodhWnN0yAg1B8fRvkkkOnUGrwZCss/2YZNLzm03TtDtZfVjvdn9d7/52Tr3dZOpNXbUVFs2O0Q6Abij01zt/3e/RZxmD2N1TrR+TTHp+h2Qxc2Be+2MIJtmfiQ7J7OaKTCpce+ec/YZmMYdgqkMyyRRPtB+TS/m8GklOsl/zOhTTjMcLf04ydKbjtvOaY16OdsKitU91Xp2gaL9bNfaf+241O53Mu9ctDmdESXGnlFpJTrJf85rixcykee2PIVl/+iPDZjd5ObOgKWbtyXNBhi2me/hNrRRPMtOWMen5zbBpxhvY7mK92PPlBUGnRY92dpOpt2tD+n8ROJWaX4dnnQAAAABJRU5ErkJggg==;" vertex="1" parent="1">
          <mxGeometry x="1329" y="210" width="651" height="267" as="geometry" />
        </mxCell>
      </root>
    </mxGraphModel>
  </diagram>
</mxfile>
